<svg width="640" height="820" viewBox="0 0 640 820" fill="none" xmlns="http://www.w3.org/2000/svg"><defs><linearGradient id="bg" x1="0" y1="0" x2="1" y2="1"><stop offset="0" stop-color="#081226"/><stop offset="1" stop-color="#111827"/></linearGradient><linearGradient id="crest" x1="0" y1="0" x2="1" y2="1"><stop offset="0" stop-color="#fb923c"/><stop offset="1" stop-color="#f97316"/></linearGradient><linearGradient id="body" x1="0" y1="0" x2="1" y2="1"><stop offset="0" stop-color="#38bdf8"/><stop offset="1" stop-color="#1d4ed8"/></linearGradient></defs><rect width="640" height="820" rx="36" fill="url(#bg)"/><circle cx="340" cy="408" r="278" fill="#0b1324" stroke="#1e293b" stroke-width="2"/><ellipse cx="334" cy="778" rx="200" ry="26" fill="#0ea5e9" fill-opacity="0.28"/><path d="M338 172l48-84 72 82-120 2z" fill="url(#crest)"/><path d="M298 176l36-72 44 68-80 4z" fill="#f59e0b"/><ellipse cx="324" cy="228" rx="78" ry="62" fill="url(#body)"/><circle cx="350" cy="220" r="18" fill="#84cc16"/><circle cx="352" cy="220" r="8" fill="#020617"/><path d="M390 232l128 18-130 30 2-48z" fill="#f59e0b"/><path d="M272 276c0-26 20-46 46-46h30c26 0 46 20 46 46v182c0 26-20 46-46 46h-30c-26 0-46-20-46-46V276z" fill="#0f172a" stroke="#334155" stroke-width="4"/><rect x="256" y="348" width="152" height="60" rx="14" fill="#0b223f"/><circle cx="332" cy="378" r="22" fill="#22d3ee" fill-opacity="0.35" stroke="#22d3ee"/><rect x="234" y="282" width="42" height="152" rx="20" fill="#0f172a" stroke="#334155" stroke-width="4"/><rect x="388" y="282" width="42" height="152" rx="20" fill="#0f172a" stroke="#334155" stroke-width="4"/><rect x="286" y="500" width="42" height="166" rx="20" fill="#0f172a"/><rect x="338" y="500" width="42" height="166" rx="20" fill="#0f172a"/><path d="M278 674h56l-12 52h-32l-12-52z" fill="#78350f"/><path d="M330 674h56l-12 52h-32l-12-52z" fill="#78350f"/></svg>
